PathFileType	4	(X/Y/Z)	TVC_60_BWA02_walk_RCNL2025.trc
DataRate	CameraRate	NumFrames	NumMarkers	Units	OrigDataRate	OrigDataStartFrame	OrigNumFrames
100	100	10	27	mm	100	208	276
Frame#	Time	R_Shoulder			L_Shoulder			C7			J_Notch			R_Elbow			L_Elbow			R_Wrist			L_Wrist			R_Asis			L_Asis			R_Psis			L_Psis			Sacral			Thoracic			Sternum			R_Thigh_Lateral			R_Knee_Lateral			R_Shank_Lateral			R_Ankle_Lateral			R_Heel			R_Toe			L_Thigh_Lateral			L_Knee_Lateral			L_Shank_Lateral			L_Ankle_Lateral			L_Heel			L_Toe		
		X1	Y1	Z1	X2	Y2	Z2	X3	Y3	Z3	X4	Y4	Z4	X5	Y5	Z5	X6	Y6	Z6	X7	Y7	Z7	X8	Y8	Z8	X9	Y9	Z9	X10	Y10	Z10	X11	Y11	Z11	X12	Y12	Z12	X13	Y13	Z13	X14	Y14	Z14	X15	Y15	Z15	X16	Y16	Z16	X17	Y17	Z17	X18	Y18	Z18	X19	Y19	Z19	X20	Y20	Z20	X21	Y21	Z21	X22	Y22	Z22	X23	Y23	Z23	X24	Y24	Z24	X25	Y25	Z25	X26	Y26	Z26	X27	Y27	Z27
208	2.07000000	819.202942	1302.818970	-94.778702	778.352722	1335.165039	-441.999481	741.880554	1383.022583	-261.258545	854.982971	1257.391724	-279.354401	797.191406	974.802673	-1.840894	709.328613	995.955872	-495.728821	911.512115	766.183960	7.690523	778.521484	777.496216	-553.628021	850.554993	892.547607	-136.695129	842.623352	903.815613	-421.967560	670.313293	889.077881	-213.894241	668.288879	891.265564	-324.954651	669.301086	890.171722	-269.424446	691.245422	1173.492310	-267.246429	891.438965	1065.453979	-275.891327	802.943176	576.254700	-57.120762	796.685913	413.982452	-121.759186	624.497253	283.684448	-99.077698	471.564941	202.125473	-176.423676	450.778503	238.646484	-225.348755	507.429199	74.521141	-198.279099	851.415771	616.713440	-470.719269	922.177979	441.417450	-383.922729	898.884460	248.930328	-407.137695	865.956177	57.475449	-324.964539	817.164429	59.336269	-286.695557	990.791626	41.760872	-301.721924
209	2.08000000	828.239990	1303.584473	-95.297668	787.543945	1335.894165	-442.536041	750.939209	1383.862305	-261.897705	863.917480	1258.072998	-279.852417	802.400146	975.444153	-3.373790	719.890869	996.497742	-497.069458	912.946045	764.777618	7.623459	790.952637	778.647766	-554.938843	858.637146	893.136841	-137.288864	850.592957	904.544189	-422.737762	678.502197	889.625183	-214.338974	676.351868	892.265198	-325.386658	677.427032	890.945190	-269.862816	700.039246	1174.489624	-267.793274	899.915222	1065.910645	-276.345581	817.294312	576.891174	-57.247570	816.258301	414.604309	-121.396736	644.584900	284.235992	-99.141258	489.323944	206.869431	-176.722305	468.843536	242.430084	-226.459747	525.916565	79.607246	-194.674500	857.397583	617.053772	-471.542450	925.627197	440.727997	-384.491150	900.582642	248.407211	-407.481720	865.964111	57.376110	-324.859344	817.158447	59.421043	-286.630219	990.797363	41.685619	-301.677795
210	2.09000000	837.046936	1304.303467	-95.726700	796.747742	1336.633301	-443.015564	759.927673	1384.708008	-262.492981	872.749817	1258.725708	-280.251526	807.474487	976.096863	-4.871442	730.477539	997.071167	-498.439117	914.246094	763.463928	7.593495	803.446838	779.846619	-556.231049	866.499329	893.769775	-137.791748	858.438293	905.208313	-423.432037	686.501587	890.208923	-214.802414	684.259338	893.257996	-325.826447	685.380463	891.733459	-270.314430	708.719727	1175.503052	-268.357147	908.227295	1066.326172	-276.680481	831.272034	577.797668	-57.407543	835.716553	415.612183	-121.110382	664.802368	284.817841	-99.245605	507.755676	210.773148	-177.086075	487.242065	245.037491	-227.676376	546.390076	84.497879	-190.787949	863.692383	617.500610	-472.354645	928.964966	440.081818	-384.989868	902.218140	247.922211	-407.796906	865.978394	57.288700	-324.760895	817.154175	59.514297	-286.546478	990.813049	41.608208	-301.629913
211	2.10000000	845.624146	1304.976440	-96.069077	805.959900	1337.381226	-443.439117	768.843201	1385.553833	-263.045685	881.479858	1259.348633	-280.554382	812.415161	976.759949	-6.328366	741.089539	997.674133	-499.835571	915.429657	762.251099	7.599589	815.993164	781.086548	-557.499847	874.161865	894.445496	-138.218216	866.167542	905.814697	-424.055634	694.327271	890.832397	-215.276794	692.023010	894.244751	-326.269135	693.175140	892.538574	-270.772964	717.289551	1176.525635	-268.937988	916.383728	1066.707642	-276.903259	844.866943	578.966064	-57.595699	854.992676	417.012573	-120.885277	685.016052	285.558289	-99.340096	526.843567	213.715393	-177.445526	505.990570	246.432846	-228.887085	568.588379	88.998070	-186.767593	870.215942	618.012756	-473.113373	932.196167	439.482819	-385.409821	903.795715	247.484375	-408.073853	865.997375	57.219936	-324.664093	817.151245	59.618286	-286.441498	990.835876	41.535152	-301.577637
212	2.11000000	853.975952	1305.605103	-96.329468	815.175903	1338.136597	-443.808197	777.683960	1386.394043	-263.557343	890.108704	1259.941162	-280.765045	817.223511	977.432983	-7.739502	751.727356	998.304199	-501.255768	916.513641	761.146179	7.640596	828.580719	782.361298	-558.740784	881.645752	895.162415	-138.583588	873.788635	906.370728	-424.614899	701.995789	891.497803	-215.753860	699.655029	895.226318	-326.709229	700.825409	893.362061	-271.231544	725.752258	1177.550415	-269.534760	924.394165	1067.062134	-277.023407	858.090454	580.371826	-57.804405	874.028137	418.799561	-120.706566	705.117920	286.543732	-99.386215	546.575317	215.594452	-177.732803	525.120972	246.604584	-229.983978	592.235168	92.933334	-182.765259	876.828613	618.544922	-473.775787	935.317017	438.932068	-385.746033	905.314575	247.100113	-408.305847	866.018311	57.174229	-324.564941	817.148621	59.734322	-286.315308	990.862610	41.470936	-301.520538
213	2.12000000	862.110901	1306.192139	-96.513733	824.390747	1338.898071	-444.124512	786.448853	1387.223022	-264.029694	898.638367	1260.502563	-280.888794	821.901978	978.116272	-9.100266	762.390991	998.958557	-502.695831	917.514404	760.154907	7.715285	841.198669	783.664459	-559.949677	888.971985	895.917786	-138.902863	881.309326	906.883667	-425.116180	709.523804	892.205750	-216.225174	707.167786	896.203491	-327.140930	708.345795	894.204620	-271.683052	734.112183	1178.570923	-270.145508	932.269287	1067.396729	-277.052216	870.969421	581.974487	-58.024754	892.773621	420.955780	-120.560204	725.035034	287.803436	-99.358948	566.940918	216.334137	-177.886246	544.672424	245.561722	-230.870850	617.072571	96.162300	-178.918915	883.366943	619.056946	-474.306000	938.318665	438.428131	-385.998169	906.770569	246.772888	-408.489716	866.038391	57.153702	-324.460785	817.145447	59.863205	-286.171082	990.890137	41.418171	-301.458588
214	2.13000000	870.040771	1306.740479	-96.628586	833.599487	1339.663696	-444.390076	795.137695	1388.035645	-264.464600	907.071838	1261.032227	-280.931915	826.453918	978.810425	-10.406581	773.079773	999.634094	-504.151245	918.447693	759.281403	7.822397	853.836426	784.989502	-561.122772	896.160950	896.707764	-139.189728	888.737427	907.360413	-425.565308	716.927612	892.954712	-216.682495	714.573425	897.176086	-327.558411	715.750519	895.065399	-272.120453	742.374268	1179.580566	-270.767303	940.020386	1067.717163	-277.001923	883.539368	583.718872	-58.247566	911.187561	423.453339	-120.433617	744.736511	289.301758	-99.244926	587.932251	215.887589	-177.854294	564.685425	243.330444	-231.469391	642.881836	98.583130	-175.339233	889.678711	619.519409	-474.680908	941.191162	437.967468	-386.170441	908.158691	246.503204	-408.625824	866.055420	57.158318	-324.350739	817.141785	60.005547	-286.015228	990.915588	41.377892	-301.392456
215	2.14000000	877.780518	1307.253540	-96.681358	842.796936	1340.430542	-444.607208	803.751038	1388.826172	-264.864075	915.413025	1261.529297	-280.901489	830.883972	979.516235	-11.654899	783.792297	1000.326721	-505.616974	919.328674	758.528381	7.960693	866.483551	786.329590	-562.256744	903.231934	897.526978	-139.455704	896.080811	907.806396	-425.966919	724.222717	893.741394	-217.118057	721.883667	898.143311	-327.955933	723.053192	895.942352	-272.536995	750.544006	1180.572876	-271.396454	947.658936	1068.027832	-276.885315	895.838318	585.538452	-58.464111	929.235229	426.255798	-120.315865	764.238831	290.939026	-99.038040	609.543091	214.239349	-177.598328	585.198242	239.951691	-231.722931	669.490173	100.135048	-172.101837	895.653870	619.916443	-474.894379	943.926086	437.544952	-386.270569	909.474915	246.288834	-408.717682	866.068481	57.186199	-324.235687	817.139160	60.161827	-285.856506	990.937012	41.349869	-301.323395
216	2.15000000	885.347168	1307.734131	-96.679642	851.978149	1341.194702	-444.778381	812.290161	1389.589355	-265.230164	923.666565	1261.992554	-280.805237	835.197754	980.234558	-12.842230	794.526428	1001.031799	-507.087433	920.171722	757.896912	8.129004	879.129852	787.677551	-563.348724	910.203186	898.368286	-139.709442	903.347351	908.225525	-426.324341	731.423828	894.560120	-217.524658	729.109680	899.103210	-328.328094	730.266754	896.831665	-272.926376	758.627258	1181.541626	-272.028473	955.196716	1068.331055	-276.714874	907.902100	587.359253	-58.666630	946.887329	429.319824	-120.197685	783.606995	292.560547	-98.734993	631.769348	211.406128	-177.094147	606.245239	235.479599	-231.597565	696.769775	100.796989	-169.245026	901.242737	620.245422	-474.957916	946.518982	437.154724	-386.308716	910.717102	246.125153	-408.771088	866.077576	57.234089	-324.117859	817.140320	60.332188	-285.705078	990.953186	41.332912	-301.253143
217	2.16000000	892.759827	1308.184814	-96.631065	861.138123	1341.951416	-444.906311	820.756897	1390.319946	-265.564819	931.837646	1262.420166	-280.651184	839.402344	980.966309	-13.966153	805.279236	1001.743591	-508.556793	920.990570	757.386566	8.326283	891.765411	789.025848	-564.396240	917.091614	899.223022	-139.956375	910.544739	908.619873	-426.639496	738.544434	895.403320	-217.895828	736.261658	900.052734	-328.669708	737.403046	897.728027	-273.282768	766.630188	1182.480591	-272.658234	962.645447	1068.627441	-276.502380	919.761536	589.105164	-58.848248	964.119202	432.596893	-120.071342	802.949402	293.972839	-98.332558	654.608398	207.436447	-176.331802	627.854797	229.980957	-231.081070	724.630554	100.585045	-166.771759	906.456543	620.513611	-474.897583	948.970398	436.790710	-386.296173	911.885681	246.005737	-408.793121	866.083496	57.297947	-324.000427	817.148926	60.516094	-285.570374	990.963562	41.325134	-301.183807
